<svg xmlns="http://www.w3.org/2000/svg" xmlns:xlink="http://www.w3.org/1999/xlink" xml:space="preserve" version="1.1" style="shape-rendering:geometricPrecision;text-rendering:geometricPrecision;image-rendering:optimizeQuality;"  viewBox="0 0 595.5 222.1"  x="0px" y="0px" fill-rule="evenodd" clip-rule="evenodd"><defs><style type="text/css">
   
    .fil0 {fill:black}
   
  </style></defs><g><path class="fil0" d="M283 220l-36 0 0 35 -38 0 0 -35 -40 0 0 50 -39 0 0 -50 -39 0c26,-27 52,-52 78,-78l0 39 40 0 0 -79 -79 0 0 30 39 0c-26,26 -52,51 -78,77l0 -39 -41 0 0 -38 41 0 0 -69c52,0 104,0 156,0l0 118 36 0 0 39z"/></g><text x="0" y="348" fill="#000000" font-size="5px" font-weight="bold" font-family="'Helvetica Neue', Helvetica, Arial-Unicode, Arial, Sans-serif">Created by Rafina Andra</text><text x="0" y="353" fill="#000000" font-size="5px" font-weight="bold" font-family="'Helvetica Neue', Helvetica, Arial-Unicode, Arial, Sans-serif">from the Noun Project</text></svg>