<?xml version="1.0" encoding="UTF-8" standalone="no"?>
<svg
   xmlns:dc="http://purl.org/dc/elements/1.1/"
   xmlns:cc="http://creativecommons.org/ns#"
   xmlns:rdf="http://www.w3.org/1999/02/22-rdf-syntax-ns#"
   xmlns:svg="http://www.w3.org/2000/svg"
   xmlns="http://www.w3.org/2000/svg"
   xml:space="preserve"
   style="enable-background:new 0 0 595.5 222.1;"
   viewBox="0 0 595.5 222.1"
   y="0px"
   x="0px"
   id="Layer_1"
   version="1.1"><metadata
   id="metadata45"><rdf:RDF><cc:Work
       rdf:about=""><dc:format>image/svg+xml</dc:format><dc:type
         rdf:resource="http://purl.org/dc/dcmitype/StillImage" /><dc:title></dc:title></cc:Work></rdf:RDF></metadata><defs
   id="defs43"><rect
     id="rect1466"
     height="115.81997"
     width="392.49044"
     y="23.653431"
     x="205.27909" /></defs>
<style
   id="style2"
   type="text/css">
	.st0{fill:#201411;}
	.st1{fill:#CD1121;}
</style>


















<g
   transform="matrix(1.0517335,0,0,1.0517335,341.97739,-70.2405)"
   id="g863"><path
     d="m 160.45502,133.99671 c 0,20.54003 -22.38576,37.19101 -50.00001,37.19101 -27.614233,0 -49.999993,-16.65098 -49.999993,-37.19101 0,-10.27002 7.1491,-26.37935 14.64466,-33.9834 9.844013,-9.986493 18.514785,-20.328631 35.355333,-28.825588 14.53999,21.125941 13.99555,18.559681 36.26852,32.821208 13.37128,8.56172 13.73149,19.71776 13.73149,29.98778 z"
     style="fill:#ff8217;fill-opacity:1;stroke-width:0.218977"
     id="path10-36" /><path
     id="path10-3"
     style="fill:#17d9ff;fill-opacity:1;stroke-width:0.14883"
     d="m 78.261457,144.44457 c 0,14.86334 14.29039,26.91246 31.918493,26.91246 17.62809,0 31.91848,-12.04912 31.91848,-26.91246 0,-7.43167 -4.56377,-19.08883 -9.3487,-24.59134 -6.28413,-7.22652 -11.81929,-14.71037 -22.56978,-20.858997 -9.2819,15.287307 -8.93433,13.430287 -23.152733,23.750327 -8.53582,6.19551 -8.76576,14.26834 -8.76576,21.70001 z" /><path
     d="m 130.03971,155.7461 c 0,8.61308 -8.8509,15.59535 -19.76904,15.59535 -10.918114,0 -19.769009,-6.98227 -19.769009,-15.59535 0,-4.30654 2.826615,-11.06168 5.790208,-14.25031 3.892131,-4.18764 7.320381,-8.52443 13.978801,-12.08746 5.74883,8.85877 5.53356,7.78265 14.33988,13.76295 5.28674,3.59021 5.42916,8.26828 5.42916,12.57482 z"
     style="fill:#0095b3;fill-opacity:1;stroke-width:0.0891625"
     id="path10-3-6" /></g><g
   id="g849"
   transform="matrix(1.5129661,0,0,1.5129661,-358.85135,-39.051211)"><g
     style="font-style:normal;font-weight:normal;font-size:95.2725px;line-height:1.25;font-family:sans-serif;word-spacing:0px;white-space:pre;shape-inside:url(#rect1466);fill:#0095b3;fill-opacity:1;stroke:none"
     id="text1464"
     transform="translate(27.052383,-10.07262)"
     aria-label="match"><path
       id="path1023"
       style="font-style:normal;font-variant:normal;font-weight:500;font-stretch:normal;font-size:95.2725px;font-family:Roboto;-inkscape-font-specification:'Roboto Medium';fill:#0095b3;fill-opacity:1"
       d="m 221.70078,57.613733 0.32564,5.256734 q 5.30325,-6.18713 14.51417,-6.18713 10.09479,0 13.81637,7.722283 5.48933,-7.722283 15.44456,-7.722283 8.32704,0 12.37426,4.605458 4.09374,4.605458 4.18678,13.583774 v 33.075561 h -11.3043 V 75.198208 q 0,-4.791537 -2.09339,-7.024487 -2.09339,-2.232949 -6.93145,-2.232949 -3.86114,0 -6.32669,2.09339 -2.41903,2.04687 -3.39594,5.396294 l 0.0465,34.517674 H 241.053 V 74.826049 q -0.2326,-8.885277 -9.07135,-8.885277 -6.79189,0 -9.6296,5.535854 v 36.471504 h -11.3043 V 57.613733 Z" /><path
       id="path1025"
       style="font-style:normal;font-variant:normal;font-weight:500;font-stretch:normal;font-size:95.2725px;font-family:Roboto;-inkscape-font-specification:'Roboto Medium';fill:#0095b3;fill-opacity:1"
       d="m 324.13732,107.94813 q -0.74431,-1.44211 -1.30255,-4.6985 -5.39629,5.62889 -13.21162,5.62889 -7.58272,0 -12.37426,-4.32633 -4.79153,-4.32634 -4.79153,-10.699553 0,-8.047921 5.95453,-12.32774 6.00105,-4.326339 17.11927,-4.326339 h 6.93145 v -3.302904 q 0,-3.907661 -2.18643,-6.23365 -2.18643,-2.372509 -6.65233,-2.372509 -3.86114,0 -6.32669,1.953831 -2.46554,1.907311 -2.46554,4.884576 h -11.30431 q 0,-4.14026 2.74467,-7.722282 2.74466,-3.628543 7.44316,-5.675413 4.74502,-2.04687 10.55999,-2.04687 8.83876,0 14.09549,4.465898 5.25674,4.419379 5.3963,12.4673 v 22.70165 q 0,6.791885 1.90731,10.839105 v 0.79084 z m -12.42078,-8.140962 q 3.34943,0 6.28017,-1.628192 2.97727,-1.628192 4.4659,-4.372859 v -9.490034 h -6.09409 q -6.28017,0 -9.44351,2.18643 -3.16335,2.186429 -3.16335,6.18713 0,3.256384 2.13991,5.210215 2.18643,1.90731 5.81497,1.90731 z" /><path
       id="path1027"
       style="font-style:normal;font-variant:normal;font-weight:500;font-stretch:normal;font-size:95.2725px;font-family:Roboto;-inkscape-font-specification:'Roboto Medium';fill:#0095b3;fill-opacity:1"
       d="m 359.77147,45.379032 v 12.234701 h 8.88527 v 8.373559 h -8.88527 v 28.097944 q 0,2.884226 1.11647,4.18678 1.163,1.256034 4.09374,1.256034 1.95383,0 3.95418,-0.465198 v 8.745718 q -3.86114,1.06995 -7.44316,1.06995 -13.02554,0 -13.02554,-14.374606 V 65.987292 h -8.28052 v -8.373559 h 8.28052 V 45.379032 Z" /><path
       id="path1029"
       style="font-style:normal;font-variant:normal;font-weight:500;font-stretch:normal;font-size:95.2725px;font-family:Roboto;-inkscape-font-specification:'Roboto Medium';fill:#0095b3;fill-opacity:1"
       d="m 397.91769,99.853688 q 4.2333,0 7.02448,-2.465548 2.79119,-2.465548 2.97727,-6.09409 h 10.65303 q -0.18608,4.698497 -2.93075,8.79224 -2.74466,4.04722 -7.44316,6.41973 -4.6985,2.3725 -10.14131,2.3725 -10.55999,0 -16.74712,-6.8384 Q 375.123,95.201711 375.123,83.153089 v -1.162994 q 0,-11.490385 6.14061,-18.375311 6.14061,-6.931447 16.74712,-6.931447 8.97832,0 14.60721,5.256735 5.67541,5.210214 5.95453,13.723333 h -10.65303 q -0.18608,-4.326339 -2.97727,-7.117525 -2.74466,-2.791187 -7.02448,-2.791187 -5.48933,0 -8.4666,4.000701 -2.97727,3.954181 -3.02379,12.048622 v 1.814271 q 0,8.18748 2.93075,12.234701 2.97727,4.0007 8.55964,4.0007 z" /><path
       id="path1031"
       style="font-style:normal;font-variant:normal;font-weight:500;font-stretch:normal;font-size:95.2725px;font-family:Roboto;-inkscape-font-specification:'Roboto Medium';fill:#0095b3;fill-opacity:1"
       d="m 438.25034,63.103066 q 5.53585,-6.419729 14.00245,-6.419729 16.09584,0 16.32844,18.375311 V 107.94813 H 457.27692 V 75.477326 q 0,-5.210215 -2.27946,-7.350124 -2.23295,-2.18643 -6.60581,-2.18643 -6.79189,0 -10.14131,6.047571 V 107.94813 H 426.94603 V 36.493755 h 11.30431 z" /></g><g
     style="font-style:normal;font-weight:normal;font-size:74.0268px;line-height:1.25;font-family:sans-serif;fill:#ff8217;fill-opacity:1;stroke:none"
     id="text1472"
     aria-label="4everyone"><path
       id="path1034"
       style="font-size:74.0268px;fill:#b35a0f;fill-opacity:1"
       d="m 270.20452,137.77817 h 6.54241 v 7.04845 h -6.54241 v 11.71127 h -8.78345 V 144.82662 H 238.6853 l -0.25302,-5.3496 22.69962,-35.56756 h 9.07262 z m -22.55504,0 h 13.77159 v -21.97671 l -0.65063,1.15667 z" /><path
       id="path1036"
       style="font-style:normal;font-variant:normal;font-weight:500;font-stretch:normal;font-size:74.0268px;font-family:Roboto;-inkscape-font-specification:'Roboto Medium';fill:#ff8217;fill-opacity:1"
       d="m 300.3502,157.26081 q -8.3497,0 -13.55471,-5.24116 -5.16887,-5.2773 -5.16887,-14.02461 v -1.08438 q 0,-5.85563 2.24105,-10.44616 2.27719,-4.62668 6.36168,-7.19303 4.08448,-2.56636 9.10876,-2.56636 7.98825,0 12.32576,5.09657 4.37365,5.09657 4.37365,14.42221 v 3.5423 h -25.55515 q 0.3976,4.84355 3.21698,7.66293 2.85553,2.81938 7.15689,2.81938 6.03637,0 9.83169,-4.8797 l 4.73511,4.51824 q -2.34948,3.50615 -6.28939,5.45803 -3.90375,1.91574 -8.78345,1.91574 z m -1.04823,-33.50725 q -3.61459,0 -5.85564,2.53021 -2.2049,2.53021 -2.81938,7.04845 h 16.73555 v -0.65063 q -0.28916,-4.4098 -2.34948,-6.65084 -2.06032,-2.27719 -5.71105,-2.27719 z" /><path
       id="path1038"
       style="font-style:normal;font-variant:normal;font-weight:500;font-stretch:normal;font-size:74.0268px;font-family:Roboto;-inkscape-font-specification:'Roboto Medium';fill:#ff8217;fill-opacity:1"
       d="m 336.24308,145.40495 8.27741,-27.97693 h 9.07262 l -13.55471,39.10987 h -7.62679 l -13.66315,-39.10987 h 9.10877 z" /><path
       id="path1040"
       style="font-style:normal;font-variant:normal;font-weight:500;font-stretch:normal;font-size:74.0268px;font-family:Roboto;-inkscape-font-specification:'Roboto Medium';fill:#ff8217;fill-opacity:1"
       d="m 375.82284,157.26081 q -8.34971,0 -13.55472,-5.24116 -5.16886,-5.2773 -5.16886,-14.02461 v -1.08438 q 0,-5.85563 2.24105,-10.44616 2.27719,-4.62668 6.36168,-7.19303 4.08448,-2.56636 9.10876,-2.56636 7.98825,0 12.32575,5.09657 4.37366,5.09657 4.37366,14.42221 v 3.5423 h -25.55515 q 0.3976,4.84355 3.21698,7.66293 2.85553,2.81938 7.15689,2.81938 6.03636,0 9.83168,-4.8797 l 4.73512,4.51824 q -2.34949,3.50615 -6.28939,5.45803 -3.90376,1.91574 -8.78345,1.91574 z m -1.04823,-33.50725 q -3.61459,0 -5.85564,2.53021 -2.2049,2.53021 -2.81938,7.04845 h 16.73555 v -0.65063 q -0.28917,-4.4098 -2.34948,-6.65084 -2.06032,-2.27719 -5.71105,-2.27719 z" /><path
       id="path1042"
       style="font-style:normal;font-variant:normal;font-weight:500;font-stretch:normal;font-size:74.0268px;font-family:Roboto;-inkscape-font-specification:'Roboto Medium';fill:#ff8217;fill-opacity:1"
       d="m 418.83647,125.45241 q -1.73501,-0.28916 -3.57845,-0.28916 -6.03636,0 -8.13283,4.62667 v 26.74797 h -8.78345 v -39.10987 h 8.38585 l 0.21688,4.37366 q 3.18083,-5.09657 8.81959,-5.09657 1.87959,0 3.10855,0.50604 z" /><path
       id="path1044"
       style="font-style:normal;font-variant:normal;font-weight:500;font-stretch:normal;font-size:74.0268px;font-family:Roboto;-inkscape-font-specification:'Roboto Medium';fill:#ff8217;fill-opacity:1"
       d="m 438.78899,143.95911 7.9521,-26.53109 h 9.36179 l -15.54274,45.0378 q -3.57844,9.86783 -12.14502,9.86783 -1.91573,0 -4.22907,-0.65063 v -6.79543 l 1.66271,0.10844 q 3.32542,0 4.98813,-1.22896 1.69886,-1.19282 2.6748,-4.04834 l 1.26511,-3.36157 -13.73544,-38.92914 h 9.47022 z" /><path
       id="path1046"
       style="font-style:normal;font-variant:normal;font-weight:500;font-stretch:normal;font-size:74.0268px;font-family:Roboto;-inkscape-font-specification:'Roboto Medium';fill:#ff8217;fill-opacity:1"
       d="m 458.88612,136.6215 q 0,-5.7472 2.27719,-10.33773 2.27719,-4.62668 6.39783,-7.0846 4.12063,-2.49406 9.47022,-2.49406 7.91595,0 12.8318,5.09657 4.95198,5.09657 5.34959,13.51856 l 0.0361,2.06032 q 0,5.78334 -2.24104,10.33773 -2.2049,4.55438 -6.36168,7.04845 -4.12063,2.49407 -9.54252,2.49407 -8.27741,0 -13.26554,-5.49418 -4.95199,-5.53032 -4.95199,-14.71138 z m 8.78345,0.75906 q 0,6.03637 2.49407,9.47023 2.49407,3.39771 6.94001,3.39771 4.44595,0 6.90387,-3.47001 2.49407,-3.47 2.49407,-10.15699 0,-5.92793 -2.56636,-9.39794 -2.53021,-3.47 -6.90387,-3.47 -4.30136,0 -6.83157,3.43386 -2.53022,3.39771 -2.53022,10.19314 z" /><path
       id="path1048"
       style="font-style:normal;font-variant:normal;font-weight:500;font-stretch:normal;font-size:74.0268px;font-family:Roboto;-inkscape-font-specification:'Roboto Medium';fill:#ff8217;fill-opacity:1"
       d="m 510.90007,117.42802 0.25302,4.51824 q 4.33751,-5.24115 11.38596,-5.24115 12.21732,0 12.43419,13.98846 v 25.84432 h -8.78345 v -25.33828 q 0,-3.72303 -1.62657,-5.49417 -1.59042,-1.8073 -5.24115,-1.8073 -5.31345,0 -7.91595,4.80741 v 27.83234 h -8.78346 v -39.10987 z" /><path
       id="path1050"
       style="font-style:normal;font-variant:normal;font-weight:500;font-stretch:normal;font-size:74.0268px;font-family:Roboto;-inkscape-font-specification:'Roboto Medium';fill:#ff8217;fill-opacity:1"
       d="m 561.17902,157.26081 q -8.3497,0 -13.55471,-5.24116 -5.16886,-5.2773 -5.16886,-14.02461 v -1.08438 q 0,-5.85563 2.24104,-10.44616 2.27719,-4.62668 6.36168,-7.19303 4.08449,-2.56636 9.10877,-2.56636 7.98824,0 12.32575,5.09657 4.37365,5.09657 4.37365,14.42221 v 3.5423 h -25.55515 q 0.39761,4.84355 3.21699,7.66293 2.85552,2.81938 7.15689,2.81938 6.03636,0 9.83168,-4.8797 l 4.73511,4.51824 q -2.34948,3.50615 -6.28938,5.45803 -3.90376,1.91574 -8.78346,1.91574 z m -1.04823,-33.50725 q -3.61459,0 -5.85563,2.53021 -2.2049,2.53021 -2.81938,7.04845 h 16.73555 v -0.65063 q -0.28917,-4.4098 -2.34949,-6.65084 -2.06031,-2.27719 -5.71105,-2.27719 z" /></g></g></svg>
