<?xml version="1.0" encoding="UTF-8" standalone="no"?>
<svg
   xmlns:dc="http://purl.org/dc/elements/1.1/"
   xmlns:cc="http://creativecommons.org/ns#"
   xmlns:rdf="http://www.w3.org/1999/02/22-rdf-syntax-ns#"
   xmlns:svg="http://www.w3.org/2000/svg"
   xmlns="http://www.w3.org/2000/svg"
   xmlns:sodipodi="http://sodipodi.sourceforge.net/DTD/sodipodi-0.dtd"
   xmlns:inkscape="http://www.inkscape.org/namespaces/inkscape"
   version="1.1"
   id="Layer_1"
   x="0px"
   y="0px"
   viewBox="0 0 595.5 222.1"
   style="enable-background:new 0 0 595.5 222.1;"
   xml:space="preserve"
   sodipodi:docname="match4everyone.svg"
   inkscape:version="1.0 (6e3e5246a0, 2020-05-07)"><metadata
   id="metadata45"><rdf:RDF><cc:Work
       rdf:about=""><dc:format>image/svg+xml</dc:format><dc:type
         rdf:resource="http://purl.org/dc/dcmitype/StillImage" /></cc:Work></rdf:RDF></metadata><defs
   id="defs43"><rect
     x="205.27909"
     y="23.653431"
     width="392.49044"
     height="115.81997"
     id="rect1466" /></defs><sodipodi:namedview
   inkscape:document-rotation="0"
   pagecolor="#ffffff"
   bordercolor="#666666"
   borderopacity="1"
   objecttolerance="10"
   gridtolerance="10"
   guidetolerance="10"
   inkscape:pageopacity="0"
   inkscape:pageshadow="2"
   inkscape:window-width="1920"
   inkscape:window-height="1016"
   id="namedview41"
   showgrid="false"
   inkscape:zoom="1.0344249"
   inkscape:cx="284.40723"
   inkscape:cy="107.21972"
   inkscape:window-x="0"
   inkscape:window-y="27"
   inkscape:window-maximized="1"
   inkscape:current-layer="g849" />
<style
   type="text/css"
   id="style2">
	.st0{fill:#201411;}
	.st1{fill:#CD1121;}
</style>


















<g
   id="g863"
   transform="matrix(1.0517335,0,0,1.0517335,341.97739,-70.2405)"><path
     id="path10-36"
     style="fill:#ff8217;fill-opacity:1;stroke-width:0.218977"
     d="m 160.45502,133.99671 c 0,20.54003 -22.38576,37.19101 -50.00001,37.19101 -27.614233,0 -49.999993,-16.65098 -49.999993,-37.19101 0,-10.27002 7.1491,-26.37935 14.64466,-33.9834 9.844013,-9.986493 18.514785,-20.328631 35.355333,-28.825588 14.53999,21.125941 13.99555,18.559681 36.26852,32.821208 13.37128,8.56172 13.73149,19.71776 13.73149,29.98778 z"
     sodipodi:nodetypes="sssscss"
     inkscape:export-xdpi="304.80005"
     inkscape:export-ydpi="304.80005" /><path
     sodipodi:nodetypes="sssscss"
     d="m 78.261457,144.44457 c 0,14.86334 14.29039,26.91246 31.918493,26.91246 17.62809,0 31.91848,-12.04912 31.91848,-26.91246 0,-7.43167 -4.56377,-19.08883 -9.3487,-24.59134 -6.28413,-7.22652 -11.81929,-14.71037 -22.56978,-20.858997 -9.2819,15.287307 -8.93433,13.430287 -23.152733,23.750327 -8.53582,6.19551 -8.76576,14.26834 -8.76576,21.70001 z"
     style="fill:#17d9ff;fill-opacity:1;stroke-width:0.14883"
     id="path10-3" /><path
     id="path10-3-6"
     style="fill:#0095b3;fill-opacity:1;stroke-width:0.0891625"
     d="m 130.03971,155.7461 c 0,8.61308 -8.8509,15.59535 -19.76904,15.59535 -10.918114,0 -19.769009,-6.98227 -19.769009,-15.59535 0,-4.30654 2.826615,-11.06168 5.790208,-14.25031 3.892131,-4.18764 7.320381,-8.52443 13.978801,-12.08746 5.74883,8.85877 5.53356,7.78265 14.33988,13.76295 5.28674,3.59021 5.42916,8.26828 5.42916,12.57482 z"
     sodipodi:nodetypes="sssscss" /></g><g
   transform="matrix(1.5129661,0,0,1.5129661,-358.85135,-39.051211)"
   id="g849"><text
     style="font-style:normal;font-weight:normal;font-size:95.2725px;line-height:1.25;font-family:sans-serif;word-spacing:0px;white-space:pre;shape-inside:url(#rect1466);fill:#0095b3;fill-opacity:1;stroke:none;"
     id="text1464"
     xml:space="preserve"
     transform="translate(27.052383,-10.07262)"><tspan
       x="205.2793"
       y="107.94813"><tspan
         style="font-style:normal;font-variant:normal;font-weight:500;font-stretch:normal;font-size:95.2725px;font-family:Roboto;-inkscape-font-specification:'Roboto Medium';fill:#0095b3;fill-opacity:1">match</tspan></tspan></text><text
     id="text1472"
     y="156.53789"
     x="236.55269"
     style="font-style:normal;font-weight:normal;font-size:74.0268px;line-height:1.25;font-family:sans-serif;fill:#ff8217;fill-opacity:1;stroke:none"
     xml:space="preserve"><tspan
       y="156.53789"
       x="236.55269"
       id="tspan1470"
       sodipodi:role="line"
       style="font-style:normal;font-variant:normal;font-weight:500;font-stretch:normal;font-size:74.0268px;font-family:Roboto;-inkscape-font-specification:'Roboto Medium';fill:#ff8217;fill-opacity:1"><tspan
   id="tspan851"
   style="font-size:74.0268px;fill:#b35a0f;fill-opacity:1">4</tspan>everyone</tspan></text></g></svg>
