<?xml version="1.0" encoding="UTF-8" standalone="no"?>
<svg
   xmlns:dc="http://purl.org/dc/elements/1.1/"
   xmlns:cc="http://creativecommons.org/ns#"
   xmlns:rdf="http://www.w3.org/1999/02/22-rdf-syntax-ns#"
   xmlns:svg="http://www.w3.org/2000/svg"
   xmlns="http://www.w3.org/2000/svg"
   xmlns:sodipodi="http://sodipodi.sourceforge.net/DTD/sodipodi-0.dtd"
   xmlns:inkscape="http://www.inkscape.org/namespaces/inkscape"
   width="100mm"
   height="100mm"
   viewBox="0 0 100 100"
   version="1.1"
   id="svg8"
   inkscape:version="1.0 (6e3e5246a0, 2020-05-07)"
   sodipodi:docname="logo.svg"
   inkscape:export-filename="/home/bjarne/Desktop/m4e_icon/flame2.png"
   inkscape:export-xdpi="300"
   inkscape:export-ydpi="300">
  <defs
     id="defs2" />
  <sodipodi:namedview
     id="base"
     pagecolor="#ffffff"
     bordercolor="#666666"
     borderopacity="1.0"
     inkscape:pageopacity="0.0"
     inkscape:pageshadow="2"
     inkscape:zoom="2.200254"
     inkscape:cx="192.73669"
     inkscape:cy="190.37247"
     inkscape:document-units="mm"
     inkscape:current-layer="layer1"
     inkscape:document-rotation="0"
     showgrid="false"
     inkscape:window-width="1920"
     inkscape:window-height="1016"
     inkscape:window-x="0"
     inkscape:window-y="27"
     inkscape:window-maximized="1" />
  <metadata
     id="metadata5">
    <rdf:RDF>
      <cc:Work
         rdf:about="">
        <dc:format>image/svg+xml</dc:format>
        <dc:type
           rdf:resource="http://purl.org/dc/dcmitype/StillImage" />
        <dc:title></dc:title>
      </cc:Work>
    </rdf:RDF>
  </metadata>
  <g
     inkscape:label="Layer 1"
     inkscape:groupmode="layer"
     id="layer1">
    <g
       transform="translate(-60.398185,-71.071408)"
       id="g863">
      <path
         inkscape:export-ydpi="304.80005"
         inkscape:export-xdpi="304.80005"
         sodipodi:nodetypes="sssscss"
         d="m 160.45502,133.99671 c 0,20.54003 -22.38576,37.19101 -50.00001,37.19101 -27.614233,0 -49.999993,-16.65098 -49.999993,-37.19101 0,-10.27002 7.1491,-26.37935 14.64466,-33.9834 9.844013,-9.986493 18.514785,-20.328631 35.355333,-28.825588 14.53999,21.125941 13.99555,18.559681 36.26852,32.821208 13.37128,8.56172 13.73149,19.71776 13.73149,29.98778 z"
         style="fill:#ff8217;fill-opacity:1;stroke-width:0.218977"
         id="path10" />
      <path
         id="path10-3"
         style="fill:#17d9ff;fill-opacity:1;stroke-width:0.14883"
         d="m 78.261457,144.44457 c 0,14.86334 14.29039,26.91246 31.918493,26.91246 17.62809,0 31.91848,-12.04912 31.91848,-26.91246 0,-7.43167 -4.56377,-19.08883 -9.3487,-24.59134 -6.28413,-7.22652 -11.81929,-14.71037 -22.56978,-20.858997 -9.2819,15.287307 -8.93433,13.430287 -23.152733,23.750327 -8.53582,6.19551 -8.76576,14.26834 -8.76576,21.70001 z"
         sodipodi:nodetypes="sssscss" />
      <path
         sodipodi:nodetypes="sssscss"
         d="m 130.03971,155.7461 c 0,8.61308 -8.8509,15.59535 -19.76904,15.59535 -10.918114,0 -19.769009,-6.98227 -19.769009,-15.59535 0,-4.30654 2.826615,-11.06168 5.790208,-14.25031 3.892131,-4.18764 7.320381,-8.52443 13.978801,-12.08746 5.74883,8.85877 5.53356,7.78265 14.33988,13.76295 5.28674,3.59021 5.42916,8.26828 5.42916,12.57482 z"
         style="fill:#0095b3;fill-opacity:1;stroke-width:0.0891625"
         id="path10-3-6" />
    </g>
  </g>
</svg>
